Coordinates
version=1
nRows=65
nColumns=12
inDegrees=yes

Units are S.I. units (second, meters, Newtons, ...)
Angles are in degrees

endheader
time	SC_y	SC_z	SC_x	AC_y	AC_z	AC_x	GH_y	GH_z	GH_yy	EL_x	PS_y
       0.0              -11.81          31.85          39.84          42.28         -14.25         -5.437         -148.2         -2.619         -128.0          14.75          116.0
    0.0111              -11.81          31.85          39.84          42.29         -14.25         -5.435         -148.2         -2.617         -127.9          14.76          115.9
    0.0222              -11.81          31.85          39.85          42.29         -14.25         -5.433         -148.2         -2.614         -127.9          14.77          115.9
   0.03329              -11.81          31.84          39.85           42.3         -14.25         -5.432         -148.2         -2.611         -127.8          14.79          115.9
   0.04439              -11.81          31.84          39.85           42.3         -14.25          -5.43         -148.2         -2.608         -127.8           14.8          115.9
   0.05549              -11.81          31.84          39.86          42.31         -14.25         -5.428         -148.2         -2.605         -127.8          14.82          115.9
   0.06659              -11.81          31.83          39.86          42.31         -14.25         -5.425         -148.2         -2.602         -127.7          14.83          115.9
   0.07769              -11.81          31.83          39.87          42.32         -14.25         -5.423         -148.2         -2.598         -127.7          14.85          115.8
   0.08878              -11.81          31.83          39.88          42.32         -14.25         -5.421         -148.2         -2.594         -127.6          14.87          115.8
   0.09988              -11.81          31.82          39.88          42.33         -14.25         -5.418         -148.2          -2.59         -127.6          14.89          115.8
     0.111              -11.81          31.82          39.89          42.34         -14.25         -5.415         -148.2         -2.585         -127.5          14.91          115.8
    0.1221              -11.82          31.82           39.9          42.34         -14.25         -5.412         -148.2         -2.581         -127.4          14.94          115.7
    0.1332              -11.82          31.81           39.9          42.35         -14.25         -5.409         -148.2         -2.575         -127.4          14.96          115.7
    0.1443              -11.82          31.81          39.91          42.36         -14.25         -5.405         -148.2          -2.57         -127.3          14.99          115.7
    0.1554              -11.82           31.8          39.92          42.37         -14.25         -5.401         -148.2         -2.564         -127.2          15.02          115.6
    0.1665              -11.82           31.8          39.93          42.38         -14.25         -5.397         -148.2         -2.557         -127.1          15.05          115.6
    0.1776              -11.82          31.79          39.94          42.39         -14.25         -5.393         -148.2          -2.55         -127.0          15.09          115.6
    0.1887              -11.82          31.78          39.95          42.41         -14.25         -5.388         -148.2         -2.542         -126.9          15.13          115.5
    0.1998              -11.82          31.78          39.97          42.42         -14.25         -5.382         -148.2         -2.533         -126.8          15.17          115.5
    0.2109              -11.82          31.77          39.98          42.44         -14.25         -5.376         -148.2         -2.524         -126.7          15.22          115.4
     0.222              -11.82          31.76          39.99          42.45         -14.25          -5.37         -148.2         -2.514         -126.6          15.27          115.3
    0.2331              -11.82          31.75          40.01          42.47         -14.25         -5.363         -148.2         -2.503         -126.4          15.32          115.3
    0.2442              -11.82          31.74          40.03          42.49         -14.26         -5.355         -148.2          -2.49         -126.3          15.39          115.2
    0.2553              -11.83          31.73          40.05          42.51         -14.26         -5.346         -148.2         -2.476         -126.1          15.45          115.1
    0.2664              -11.83          31.71          40.07          42.54         -14.26         -5.336         -148.2         -2.461         -125.9          15.53          115.0
    0.2775              -11.83           31.7           40.1          42.57         -14.26         -5.325         -148.2         -2.444         -125.7          15.62          114.9
    0.2885              -11.83          31.68          40.13           42.6         -14.26         -5.313         -148.2         -2.424         -125.4          15.71          114.8
    0.2996              -11.83          31.66          40.16          42.63         -14.26         -5.299         -148.2         -2.403         -125.1          15.82          114.7
    0.3107              -11.84          31.64          40.19          42.67         -14.26         -5.284         -148.3         -2.378         -124.8          15.94          114.6
    0.3218              -11.84          31.62          40.23          42.71         -14.26         -5.266         -148.3         -2.351         -124.4          16.08          114.4
    0.3329              -11.84          31.59          40.28          42.77         -14.26         -5.246         -148.3         -2.319         -124.0          16.24          114.2
     0.344              -11.85          31.56          40.33          42.82         -14.26         -5.223         -148.3         -2.283         -123.5          16.42          114.0
    0.3551              -11.85          31.52           40.4          42.89         -14.26         -5.197         -148.3         -2.241         -123.0          16.62          113.7
    0.3662              -11.85          31.48          40.47          42.97         -14.27         -5.166         -148.3         -2.192         -122.4          16.87          113.5
    0.3773              -11.86          31.43          40.55          43.06         -14.27          -5.13         -148.3         -2.135         -121.6          17.15          113.1
    0.3884              -11.87          31.38          40.65          43.17         -14.27         -5.087         -148.3         -2.067         -120.7          17.48          112.7
    0.3995              -11.88          31.31          40.77           43.3         -14.27         -5.036         -148.3         -1.987         -119.7          17.88          112.3
    0.4106              -11.89          31.22          40.91          43.45         -14.28         -4.976         -148.4         -1.892         -118.4          18.35          111.7
    0.4217               -11.9          31.12          41.08          43.64         -14.28         -4.902         -148.4         -1.776         -116.9          18.93          111.0
    0.4328              -11.91           31.0          41.29          43.87         -14.29         -4.812         -148.4         -1.634         -115.1          19.63          110.2
    0.4439              -11.93          30.85          41.55          44.15         -14.29         -4.702         -148.5         -1.459         -112.8           20.5          109.2
     0.455              -11.95          30.67          41.87           44.5          -14.3         -4.564         -148.5         -1.241         -109.9          21.58          107.9
    0.4661              -11.98          30.43          42.27          44.94         -14.31          -4.39         -148.6        -0.9667         -106.3          22.94          106.3
    0.4772              -12.01          30.13          42.79           45.5         -14.32         -4.168         -148.7        -0.6176         -101.8          24.67          104.3
    0.4883              -12.06          29.75          43.45          46.22         -14.34         -3.885         -148.8        -0.1708         -95.92          26.89          101.7
    0.4994              -12.12          29.25          44.29          47.14         -14.36         -3.522         -148.9         0.4026         -88.42          29.73          98.31
    0.5105              -12.19          28.62          45.37          48.32         -14.38         -3.058         -149.1          1.135         -78.84          33.36          94.04
    0.5216              -12.28          27.83          46.72          49.81         -14.41         -2.474         -149.3          2.056         -66.79          37.93          88.66
    0.5327               -12.4          26.87          48.38          51.61         -14.45         -1.763         -149.5          3.178         -52.11          43.49          82.11
    0.5438              -12.53          25.75          50.29           53.7          -14.5        -0.9392         -149.9          4.479          -35.1          49.94          74.51
    0.5549              -12.67          24.54          52.37          55.97         -14.55        -0.0468         -150.2          5.887         -16.67          56.93          66.28
     0.566              -12.82          23.33          54.44          58.24          -14.6         0.8456         -150.5          7.296          1.752          63.91          58.06
    0.5771              -12.95          22.21          56.36          60.33         -14.64           1.67         -150.8          8.597          18.77          70.36          50.46
    0.5882              -13.06          21.25          58.01          62.14         -14.68          2.381         -151.1          9.719          33.45          75.93          43.91
    0.5993              -13.15          20.46          59.37          63.62         -14.71          2.964         -151.3          10.64           45.5          80.49          38.53
    0.6104              -13.23          19.83          60.45           64.8         -14.74          3.428         -151.5          11.37          55.08          84.13          34.26
    0.6215              -13.29          19.33          61.29          65.72         -14.76          3.792         -151.6          11.95          62.58          86.97          30.91
    0.6326              -13.33          18.95          61.95          66.44         -14.77          4.075         -151.7          12.39          68.42          89.19           28.3
    0.6437              -13.37          18.65          62.46           67.0         -14.79          4.296         -151.8          12.74          72.99          90.92          26.26
    0.6548              -13.39          18.41          62.87          67.44         -14.79           4.47         -151.8          13.02          76.58          92.28          24.66
    0.6659              -13.42          18.23          63.19          67.79          -14.8          4.608         -151.9          13.23          79.43          93.36          23.38
     0.677              -13.43          18.08          63.45          68.07         -14.81          4.719         -151.9          13.41          81.72          94.23          22.36
    0.6881              -13.45          17.96          63.65           68.3         -14.81          4.809         -152.0          13.55          83.57          94.93          21.54
    0.6992              -13.46          17.86          63.83          68.49         -14.82          4.882         -152.0          13.67          85.09           95.5          20.86
    0.7103              -13.47          17.77          63.97          68.64         -14.82          4.943         -152.0          13.76          86.34          95.98           20.3
